<?xml version="1.0" standalone="no"?>
<!DOCTYPE svg PUBLIC "-//W3C//DTD SVG 20010904//EN"
 "http://www.w3.org/TR/2001/REC-SVG-20010904/DTD/svg10.dtd">
<svg version="1.0" xmlns="http://www.w3.org/2000/svg"
 width="520.000000pt" height="520.000000pt" viewBox="0 0 520.000000 520.000000"
 preserveAspectRatio="xMidYMid meet">
<metadata>
Created by potrace 1.14, written by Peter Selinger 2001-2017
</metadata>
<g transform="translate(0.000000,520.000000) scale(0.100000,-0.100000)"
fill="#000000" stroke="none">
<path d="M505 5184 c-244 -52 -444 -255 -490 -498 -13 -67 -15 -352 -15 -2087
0 -2228 -4 -2091 65 -2234 66 -136 173 -241 311 -307 129 -61 25 -58 2225 -58
2228 0 2091 -4 2234 65 136 66 241 173 307 311 61 129 58 25 58 2225 0 2228 4
2091 -65 2234 -89 183 -256 313 -449 350 -117 22 -4075 21 -4181 -1z m2231
-1881 c-3 -98 -9 -250 -13 -338 l-6 -159 29 19 c25 16 380 241 500 317 l41 26
72 -126 c39 -69 68 -128 64 -132 -4 -4 -137 -74 -295 -156 -158 -82 -288 -151
-288 -154 0 -3 127 -70 282 -150 154 -80 287 -149 294 -155 11 -8 1 -33 -55
-130 -38 -66 -75 -120 -82 -119 -8 1 -135 78 -284 172 -202 129 -271 168 -273
156 -2 -9 1 -136 7 -284 6 -147 11 -290 11 -319 l0 -51 -146 0 -147 0 7 103
c3 56 9 207 12 336 l7 233 -79 -49 c-43 -28 -168 -107 -278 -177 -109 -70
-203 -125 -207 -124 -14 5 -148 242 -141 249 4 4 136 73 294 155 158 82 288
151 288 154 0 3 -133 74 -295 159 -162 84 -293 156 -291 159 94 168 139 242
146 242 9 0 519 -320 549 -344 12 -9 13 23 7 224 -3 129 -9 281 -12 338 l-7
102 148 0 148 0 -7 -177z"/>
</g>
</svg>
